<mxfile host="app.diagrams.net" modified="2023-08-22T07:14:01.723Z" agent="Mozilla/5.0 (Macintosh; Intel Mac OS X 10_15_7) AppleWebKit/537.36 (KHTML, like Gecko) Chrome/112.0.0.0 Safari/537.36" etag="UH0ukWLgyjB-Uf7rKjBc" version="21.6.5" type="github">
  <diagram name="Page-1" id="YZ-_NqlRaxDczBT41T-6">
    <mxGraphModel dx="2761" dy="1086" grid="1" gridSize="10" guides="1" tooltips="1" connect="1" arrows="1" fold="1" page="1" pageScale="1" pageWidth="850" pageHeight="1100" math="0" shadow="0">
      <root>
        <mxCell id="0" />
        <mxCell id="1" parent="0" />
        <mxCell id="UhTnNKOjFuEMbcI4-UWW-7" value="" style="endArrow=none;html=1;strokeWidth=2;rounded=0;" parent="1" edge="1">
          <mxGeometry width="50" height="50" relative="1" as="geometry">
            <mxPoint x="480" y="940" as="sourcePoint" />
            <mxPoint x="480" y="120" as="targetPoint" />
          </mxGeometry>
        </mxCell>
        <mxCell id="7hsorBb9Qb3xn0NSskeE-34" value="" style="endArrow=none;html=1;strokeWidth=2;rounded=0;" edge="1" parent="1">
          <mxGeometry width="50" height="50" relative="1" as="geometry">
            <mxPoint x="1650" y="940" as="sourcePoint" />
            <mxPoint x="1650" y="120" as="targetPoint" />
          </mxGeometry>
        </mxCell>
        <mxCell id="7hsorBb9Qb3xn0NSskeE-33" value="" style="endArrow=none;html=1;strokeWidth=2;rounded=0;" edge="1" parent="1">
          <mxGeometry width="50" height="50" relative="1" as="geometry">
            <mxPoint x="1230" y="940" as="sourcePoint" />
            <mxPoint x="1230" y="120" as="targetPoint" />
          </mxGeometry>
        </mxCell>
        <mxCell id="7hsorBb9Qb3xn0NSskeE-35" value="" style="endArrow=none;html=1;strokeWidth=2;rounded=0;" edge="1" parent="1">
          <mxGeometry width="50" height="50" relative="1" as="geometry">
            <mxPoint x="2030" y="940" as="sourcePoint" />
            <mxPoint x="2030" y="120" as="targetPoint" />
          </mxGeometry>
        </mxCell>
        <mxCell id="UhTnNKOjFuEMbcI4-UWW-1" value="销帮" style="text;html=1;strokeColor=#6c8ebf;fillColor=#dae8fc;align=center;verticalAlign=middle;whiteSpace=wrap;rounded=0;fontSize=26;" parent="1" vertex="1">
          <mxGeometry x="200" y="90" width="60" height="30" as="geometry" />
        </mxCell>
        <mxCell id="UhTnNKOjFuEMbcI4-UWW-2" value="月结" style="text;html=1;strokeColor=#6c8ebf;fillColor=#dae8fc;align=center;verticalAlign=middle;whiteSpace=wrap;rounded=0;fontSize=26;" parent="1" vertex="1">
          <mxGeometry x="810" y="90" width="60" height="30" as="geometry" />
        </mxCell>
        <mxCell id="UhTnNKOjFuEMbcI4-UWW-3" value="CDM" style="text;html=1;strokeColor=#6c8ebf;fillColor=#dae8fc;align=center;verticalAlign=middle;whiteSpace=wrap;rounded=0;fontSize=26;" parent="1" vertex="1">
          <mxGeometry x="1790" y="90" width="60" height="30" as="geometry" />
        </mxCell>
        <mxCell id="UhTnNKOjFuEMbcI4-UWW-4" value="CMDM" style="text;html=1;strokeColor=#6c8ebf;fillColor=#dae8fc;align=center;verticalAlign=middle;whiteSpace=wrap;rounded=0;fontSize=26;" parent="1" vertex="1">
          <mxGeometry x="2170" y="90" width="60" height="30" as="geometry" />
        </mxCell>
        <mxCell id="UhTnNKOjFuEMbcI4-UWW-16" value="" style="edgeStyle=orthogonalEdgeStyle;rounded=0;orthogonalLoop=1;jettySize=auto;html=1;" parent="1" source="UhTnNKOjFuEMbcI4-UWW-5" target="UhTnNKOjFuEMbcI4-UWW-8" edge="1">
          <mxGeometry relative="1" as="geometry" />
        </mxCell>
        <mxCell id="UhTnNKOjFuEMbcI4-UWW-5" value="发起协议签约" style="rounded=1;whiteSpace=wrap;html=1;" parent="1" vertex="1">
          <mxGeometry x="30" y="220" width="120" height="60" as="geometry" />
        </mxCell>
        <mxCell id="UhTnNKOjFuEMbcI4-UWW-12" value="" style="edgeStyle=orthogonalEdgeStyle;rounded=0;orthogonalLoop=1;jettySize=auto;html=1;entryX=0;entryY=0.5;entryDx=0;entryDy=0;" parent="1" source="UhTnNKOjFuEMbcI4-UWW-8" target="UhTnNKOjFuEMbcI4-UWW-34" edge="1">
          <mxGeometry relative="1" as="geometry">
            <mxPoint x="110" y="520.0000000000002" as="targetPoint" />
          </mxGeometry>
        </mxCell>
        <mxCell id="UhTnNKOjFuEMbcI4-UWW-14" value="已发起" style="edgeLabel;html=1;align=center;verticalAlign=middle;resizable=0;points=[];" parent="UhTnNKOjFuEMbcI4-UWW-12" vertex="1" connectable="0">
          <mxGeometry x="-0.1152" y="-3" relative="1" as="geometry">
            <mxPoint as="offset" />
          </mxGeometry>
        </mxCell>
        <mxCell id="UhTnNKOjFuEMbcI4-UWW-23" value="未发起" style="edgeStyle=orthogonalEdgeStyle;rounded=0;orthogonalLoop=1;jettySize=auto;html=1;" parent="1" source="UhTnNKOjFuEMbcI4-UWW-8" target="UhTnNKOjFuEMbcI4-UWW-19" edge="1">
          <mxGeometry relative="1" as="geometry" />
        </mxCell>
        <mxCell id="UhTnNKOjFuEMbcI4-UWW-8" value="是否已经发起？" style="rhombus;whiteSpace=wrap;html=1;" parent="1" vertex="1">
          <mxGeometry x="50" y="360" width="80" height="80" as="geometry" />
        </mxCell>
        <mxCell id="UhTnNKOjFuEMbcI4-UWW-38" value="" style="edgeStyle=orthogonalEdgeStyle;rounded=0;orthogonalLoop=1;jettySize=auto;html=1;" parent="1" source="UhTnNKOjFuEMbcI4-UWW-10" target="UhTnNKOjFuEMbcI4-UWW-11" edge="1">
          <mxGeometry relative="1" as="geometry" />
        </mxCell>
        <mxCell id="UhTnNKOjFuEMbcI4-UWW-10" value="客户验证手机号，确认签约人身份" style="rounded=0;whiteSpace=wrap;html=1;" parent="1" vertex="1">
          <mxGeometry x="610" y="370" width="120" height="60" as="geometry" />
        </mxCell>
        <mxCell id="7hsorBb9Qb3xn0NSskeE-5" value="" style="edgeStyle=orthogonalEdgeStyle;rounded=0;orthogonalLoop=1;jettySize=auto;html=1;" edge="1" parent="1" source="UhTnNKOjFuEMbcI4-UWW-11" target="UhTnNKOjFuEMbcI4-UWW-17">
          <mxGeometry relative="1" as="geometry" />
        </mxCell>
        <mxCell id="7hsorBb9Qb3xn0NSskeE-8" value="否" style="edgeLabel;html=1;align=center;verticalAlign=middle;resizable=0;points=[];" vertex="1" connectable="0" parent="7hsorBb9Qb3xn0NSskeE-5">
          <mxGeometry x="0.1944" y="-2" relative="1" as="geometry">
            <mxPoint x="-7" y="-2" as="offset" />
          </mxGeometry>
        </mxCell>
        <mxCell id="7hsorBb9Qb3xn0NSskeE-6" value="" style="edgeStyle=orthogonalEdgeStyle;rounded=0;orthogonalLoop=1;jettySize=auto;html=1;" edge="1" parent="1" source="UhTnNKOjFuEMbcI4-UWW-11" target="UhTnNKOjFuEMbcI4-UWW-18">
          <mxGeometry relative="1" as="geometry" />
        </mxCell>
        <mxCell id="7hsorBb9Qb3xn0NSskeE-9" value="是" style="edgeLabel;html=1;align=center;verticalAlign=middle;resizable=0;points=[];" vertex="1" connectable="0" parent="7hsorBb9Qb3xn0NSskeE-6">
          <mxGeometry x="-0.345" relative="1" as="geometry">
            <mxPoint as="offset" />
          </mxGeometry>
        </mxCell>
        <mxCell id="UhTnNKOjFuEMbcI4-UWW-11" value="是否已经发起？" style="rhombus;whiteSpace=wrap;html=1;" parent="1" vertex="1">
          <mxGeometry x="630" y="510" width="80" height="80" as="geometry" />
        </mxCell>
        <mxCell id="7hsorBb9Qb3xn0NSskeE-17" style="edgeStyle=orthogonalEdgeStyle;rounded=0;orthogonalLoop=1;jettySize=auto;html=1;exitX=1;exitY=0.5;exitDx=0;exitDy=0;" edge="1" parent="1" source="UhTnNKOjFuEMbcI4-UWW-17" target="7hsorBb9Qb3xn0NSskeE-16">
          <mxGeometry relative="1" as="geometry" />
        </mxCell>
        <mxCell id="UhTnNKOjFuEMbcI4-UWW-17" value="覆盖先前的签约记录" style="rounded=0;whiteSpace=wrap;html=1;" parent="1" vertex="1">
          <mxGeometry x="790" y="520" width="120" height="60" as="geometry" />
        </mxCell>
        <mxCell id="7hsorBb9Qb3xn0NSskeE-10" value="" style="edgeStyle=orthogonalEdgeStyle;rounded=0;orthogonalLoop=1;jettySize=auto;html=1;" edge="1" parent="1" source="UhTnNKOjFuEMbcI4-UWW-18" target="7hsorBb9Qb3xn0NSskeE-7">
          <mxGeometry relative="1" as="geometry" />
        </mxCell>
        <mxCell id="7hsorBb9Qb3xn0NSskeE-11" value="否" style="edgeLabel;html=1;align=center;verticalAlign=middle;resizable=0;points=[];" vertex="1" connectable="0" parent="7hsorBb9Qb3xn0NSskeE-10">
          <mxGeometry x="-0.0857" relative="1" as="geometry">
            <mxPoint as="offset" />
          </mxGeometry>
        </mxCell>
        <mxCell id="7hsorBb9Qb3xn0NSskeE-15" value="" style="edgeStyle=orthogonalEdgeStyle;rounded=0;orthogonalLoop=1;jettySize=auto;html=1;" edge="1" parent="1" source="UhTnNKOjFuEMbcI4-UWW-18" target="7hsorBb9Qb3xn0NSskeE-12">
          <mxGeometry relative="1" as="geometry" />
        </mxCell>
        <mxCell id="7hsorBb9Qb3xn0NSskeE-36" value="是" style="edgeLabel;html=1;align=center;verticalAlign=middle;resizable=0;points=[];" vertex="1" connectable="0" parent="7hsorBb9Qb3xn0NSskeE-15">
          <mxGeometry x="-0.4089" y="-1" relative="1" as="geometry">
            <mxPoint x="1" y="14" as="offset" />
          </mxGeometry>
        </mxCell>
        <mxCell id="UhTnNKOjFuEMbcI4-UWW-18" value="是否已提交审核？" style="rhombus;whiteSpace=wrap;html=1;" parent="1" vertex="1">
          <mxGeometry x="630" y="660" width="80" height="80" as="geometry" />
        </mxCell>
        <mxCell id="UhTnNKOjFuEMbcI4-UWW-24" value="" style="edgeStyle=orthogonalEdgeStyle;rounded=0;orthogonalLoop=1;jettySize=auto;html=1;" parent="1" edge="1">
          <mxGeometry relative="1" as="geometry">
            <mxPoint x="299.9999999999999" y="429.9999999999999" as="sourcePoint" />
            <mxPoint x="300" y="510" as="targetPoint" />
          </mxGeometry>
        </mxCell>
        <mxCell id="UhTnNKOjFuEMbcI4-UWW-27" value="有历史数据" style="edgeLabel;html=1;align=center;verticalAlign=middle;resizable=0;points=[];" parent="UhTnNKOjFuEMbcI4-UWW-24" vertex="1" connectable="0">
          <mxGeometry x="-0.375" y="-1" relative="1" as="geometry">
            <mxPoint x="1" y="15" as="offset" />
          </mxGeometry>
        </mxCell>
        <mxCell id="UhTnNKOjFuEMbcI4-UWW-25" style="edgeStyle=orthogonalEdgeStyle;rounded=0;orthogonalLoop=1;jettySize=auto;html=1;exitX=1;exitY=0.5;exitDx=0;exitDy=0;entryX=0;entryY=0.5;entryDx=0;entryDy=0;" parent="1" source="UhTnNKOjFuEMbcI4-UWW-19" target="UhTnNKOjFuEMbcI4-UWW-10" edge="1">
          <mxGeometry relative="1" as="geometry" />
        </mxCell>
        <mxCell id="UhTnNKOjFuEMbcI4-UWW-26" value="无历史数据" style="edgeLabel;html=1;align=center;verticalAlign=middle;resizable=0;points=[];" parent="UhTnNKOjFuEMbcI4-UWW-25" vertex="1" connectable="0">
          <mxGeometry x="0.0519" y="-2" relative="1" as="geometry">
            <mxPoint x="-1" y="1" as="offset" />
          </mxGeometry>
        </mxCell>
        <mxCell id="UhTnNKOjFuEMbcI4-UWW-19" value="是否已有签约认证记录" style="rhombus;whiteSpace=wrap;html=1;" parent="1" vertex="1">
          <mxGeometry x="260" y="360" width="80" height="80" as="geometry" />
        </mxCell>
        <mxCell id="UhTnNKOjFuEMbcI4-UWW-28" value="是否有月结认证记录" style="rhombus;whiteSpace=wrap;html=1;" parent="1" vertex="1">
          <mxGeometry x="260" y="510" width="80" height="80" as="geometry" />
        </mxCell>
        <mxCell id="UhTnNKOjFuEMbcI4-UWW-29" value="提示客户经理已有签约数据，请先处理已发起的数据" style="rounded=0;whiteSpace=wrap;html=1;" parent="1" vertex="1">
          <mxGeometry y="670" width="120" height="60" as="geometry" />
        </mxCell>
        <mxCell id="UhTnNKOjFuEMbcI4-UWW-37" value="" style="edgeStyle=orthogonalEdgeStyle;rounded=0;orthogonalLoop=1;jettySize=auto;html=1;" parent="1" source="UhTnNKOjFuEMbcI4-UWW-34" target="UhTnNKOjFuEMbcI4-UWW-29" edge="1">
          <mxGeometry relative="1" as="geometry" />
        </mxCell>
        <mxCell id="7hsorBb9Qb3xn0NSskeE-1" value="是" style="edgeLabel;html=1;align=center;verticalAlign=middle;resizable=0;points=[];" vertex="1" connectable="0" parent="UhTnNKOjFuEMbcI4-UWW-37">
          <mxGeometry x="-0.2621" y="-1" relative="1" as="geometry">
            <mxPoint as="offset" />
          </mxGeometry>
        </mxCell>
        <mxCell id="7hsorBb9Qb3xn0NSskeE-40" style="edgeStyle=orthogonalEdgeStyle;rounded=0;orthogonalLoop=1;jettySize=auto;html=1;exitX=0.5;exitY=1;exitDx=0;exitDy=0;entryX=0.5;entryY=0;entryDx=0;entryDy=0;" edge="1" parent="1" source="UhTnNKOjFuEMbcI4-UWW-34" target="7hsorBb9Qb3xn0NSskeE-39">
          <mxGeometry relative="1" as="geometry" />
        </mxCell>
        <mxCell id="7hsorBb9Qb3xn0NSskeE-41" value="否" style="edgeLabel;html=1;align=center;verticalAlign=middle;resizable=0;points=[];" vertex="1" connectable="0" parent="7hsorBb9Qb3xn0NSskeE-40">
          <mxGeometry x="-0.0487" y="-1" relative="1" as="geometry">
            <mxPoint as="offset" />
          </mxGeometry>
        </mxCell>
        <mxCell id="UhTnNKOjFuEMbcI4-UWW-34" value="是否是同一个客户经理的数据？" style="rhombus;whiteSpace=wrap;html=1;" parent="1" vertex="1">
          <mxGeometry x="110" y="510" width="80" height="80" as="geometry" />
        </mxCell>
        <mxCell id="7hsorBb9Qb3xn0NSskeE-2" style="edgeStyle=orthogonalEdgeStyle;rounded=0;orthogonalLoop=1;jettySize=auto;html=1;exitX=0.5;exitY=1;exitDx=0;exitDy=0;fillColor=#dae8fc;strokeColor=#6c8ebf;" edge="1" parent="1" source="UhTnNKOjFuEMbcI4-UWW-3" target="UhTnNKOjFuEMbcI4-UWW-3">
          <mxGeometry relative="1" as="geometry" />
        </mxCell>
        <mxCell id="7hsorBb9Qb3xn0NSskeE-19" style="edgeStyle=orthogonalEdgeStyle;rounded=0;orthogonalLoop=1;jettySize=auto;html=1;exitX=1;exitY=0.5;exitDx=0;exitDy=0;entryX=0;entryY=0.5;entryDx=0;entryDy=0;" edge="1" parent="1" source="7hsorBb9Qb3xn0NSskeE-7" target="7hsorBb9Qb3xn0NSskeE-16">
          <mxGeometry relative="1" as="geometry" />
        </mxCell>
        <mxCell id="7hsorBb9Qb3xn0NSskeE-7" value="覆盖先前的签约记录" style="rounded=0;whiteSpace=wrap;html=1;" vertex="1" parent="1">
          <mxGeometry x="790" y="670" width="120" height="60" as="geometry" />
        </mxCell>
        <mxCell id="7hsorBb9Qb3xn0NSskeE-12" value="提示客户已有签约数据，请先处理已发起的数据" style="rounded=0;whiteSpace=wrap;html=1;" vertex="1" parent="1">
          <mxGeometry x="610" y="830" width="120" height="60" as="geometry" />
        </mxCell>
        <mxCell id="7hsorBb9Qb3xn0NSskeE-26" style="edgeStyle=orthogonalEdgeStyle;rounded=0;orthogonalLoop=1;jettySize=auto;html=1;exitX=1;exitY=0.5;exitDx=0;exitDy=0;entryX=0;entryY=0.5;entryDx=0;entryDy=0;" edge="1" parent="1" source="7hsorBb9Qb3xn0NSskeE-16" target="7hsorBb9Qb3xn0NSskeE-23">
          <mxGeometry relative="1" as="geometry" />
        </mxCell>
        <mxCell id="7hsorBb9Qb3xn0NSskeE-27" value="&lt;b&gt;认证通过，前往盖章，调用一系列接口，生成卡号、草稿合同、转化PDF&lt;/b&gt;" style="edgeLabel;html=1;align=center;verticalAlign=middle;resizable=0;points=[];" vertex="1" connectable="0" parent="7hsorBb9Qb3xn0NSskeE-26">
          <mxGeometry x="0.1742" y="2" relative="1" as="geometry">
            <mxPoint x="-1" as="offset" />
          </mxGeometry>
        </mxCell>
        <mxCell id="7hsorBb9Qb3xn0NSskeE-16" value="客户实名认证&lt;br&gt;&lt;br&gt;&lt;br&gt;个人：人脸/人脸+三要素/四要素&lt;br&gt;&lt;br&gt;企业：法人/受托人（银行卡+对公打款）" style="rounded=0;whiteSpace=wrap;html=1;" vertex="1" parent="1">
          <mxGeometry x="1000" y="520" width="120" height="210" as="geometry" />
        </mxCell>
        <mxCell id="7hsorBb9Qb3xn0NSskeE-32" style="edgeStyle=orthogonalEdgeStyle;rounded=0;orthogonalLoop=1;jettySize=auto;html=1;exitX=0.5;exitY=1;exitDx=0;exitDy=0;entryX=0.5;entryY=0;entryDx=0;entryDy=0;" edge="1" parent="1" source="7hsorBb9Qb3xn0NSskeE-22" target="7hsorBb9Qb3xn0NSskeE-30">
          <mxGeometry relative="1" as="geometry" />
        </mxCell>
        <mxCell id="7hsorBb9Qb3xn0NSskeE-22" value="将 word 合同转化为 PDF" style="rounded=0;whiteSpace=wrap;html=1;" vertex="1" parent="1">
          <mxGeometry x="1380" y="790" width="120" height="60" as="geometry" />
        </mxCell>
        <mxCell id="7hsorBb9Qb3xn0NSskeE-29" style="edgeStyle=orthogonalEdgeStyle;rounded=0;orthogonalLoop=1;jettySize=auto;html=1;exitX=1;exitY=0.5;exitDx=0;exitDy=0;" edge="1" parent="1" source="7hsorBb9Qb3xn0NSskeE-23" target="7hsorBb9Qb3xn0NSskeE-24">
          <mxGeometry relative="1" as="geometry" />
        </mxCell>
        <mxCell id="7hsorBb9Qb3xn0NSskeE-23" value="生成卡号" style="rounded=0;whiteSpace=wrap;html=1;" vertex="1" parent="1">
          <mxGeometry x="1760" y="595" width="120" height="60" as="geometry" />
        </mxCell>
        <mxCell id="7hsorBb9Qb3xn0NSskeE-31" style="edgeStyle=orthogonalEdgeStyle;rounded=0;orthogonalLoop=1;jettySize=auto;html=1;exitX=0.5;exitY=1;exitDx=0;exitDy=0;entryX=0.5;entryY=0;entryDx=0;entryDy=0;" edge="1" parent="1" source="7hsorBb9Qb3xn0NSskeE-24" target="7hsorBb9Qb3xn0NSskeE-22">
          <mxGeometry relative="1" as="geometry" />
        </mxCell>
        <mxCell id="7hsorBb9Qb3xn0NSskeE-24" value="创建草稿合同" style="rounded=0;whiteSpace=wrap;html=1;" vertex="1" parent="1">
          <mxGeometry x="2125" y="595" width="120" height="60" as="geometry" />
        </mxCell>
        <mxCell id="7hsorBb9Qb3xn0NSskeE-25" value="电子签章" style="text;html=1;strokeColor=#6c8ebf;fillColor=#dae8fc;align=center;verticalAlign=middle;whiteSpace=wrap;rounded=0;fontSize=26;" vertex="1" parent="1">
          <mxGeometry x="1390" y="90" width="120" height="30" as="geometry" />
        </mxCell>
        <mxCell id="7hsorBb9Qb3xn0NSskeE-47" style="edgeStyle=orthogonalEdgeStyle;rounded=0;orthogonalLoop=1;jettySize=auto;html=1;exitX=1;exitY=0.5;exitDx=0;exitDy=0;entryX=0.5;entryY=0;entryDx=0;entryDy=0;" edge="1" parent="1" source="7hsorBb9Qb3xn0NSskeE-30" target="7hsorBb9Qb3xn0NSskeE-46">
          <mxGeometry relative="1" as="geometry" />
        </mxCell>
        <mxCell id="7hsorBb9Qb3xn0NSskeE-48" value="盖章提交审批" style="edgeLabel;html=1;align=center;verticalAlign=middle;resizable=0;points=[];" vertex="1" connectable="0" parent="7hsorBb9Qb3xn0NSskeE-47">
          <mxGeometry x="0.0958" y="1" relative="1" as="geometry">
            <mxPoint x="1" as="offset" />
          </mxGeometry>
        </mxCell>
        <mxCell id="7hsorBb9Qb3xn0NSskeE-30" value="进入电子签章页面" style="rounded=0;whiteSpace=wrap;html=1;" vertex="1" parent="1">
          <mxGeometry x="1380" y="930" width="120" height="60" as="geometry" />
        </mxCell>
        <mxCell id="7hsorBb9Qb3xn0NSskeE-37" value="" style="endArrow=none;html=1;strokeWidth=2;rounded=0;" edge="1" parent="1">
          <mxGeometry width="50" height="50" relative="1" as="geometry">
            <mxPoint x="-80" y="940" as="sourcePoint" />
            <mxPoint x="-80" y="120" as="targetPoint" />
          </mxGeometry>
        </mxCell>
        <mxCell id="7hsorBb9Qb3xn0NSskeE-38" value="" style="endArrow=none;html=1;strokeWidth=2;rounded=0;" edge="1" parent="1">
          <mxGeometry width="50" height="50" relative="1" as="geometry">
            <mxPoint x="2340" y="940" as="sourcePoint" />
            <mxPoint x="2340" y="120" as="targetPoint" />
          </mxGeometry>
        </mxCell>
        <mxCell id="7hsorBb9Qb3xn0NSskeE-39" value="提示客户经理已有签约数据，客户经理是谁，请先处理已发起的数据" style="rounded=0;whiteSpace=wrap;html=1;" vertex="1" parent="1">
          <mxGeometry x="90" y="750" width="120" height="60" as="geometry" />
        </mxCell>
        <mxCell id="7hsorBb9Qb3xn0NSskeE-43" value="线下创建卡号" style="rounded=0;whiteSpace=wrap;html=1;" vertex="1" parent="1">
          <mxGeometry x="1760" y="1460" width="120" height="60" as="geometry" />
        </mxCell>
        <mxCell id="7hsorBb9Qb3xn0NSskeE-45" value="线下签约合同" style="rounded=0;whiteSpace=wrap;html=1;" vertex="1" parent="1">
          <mxGeometry x="2125" y="1470" width="120" height="60" as="geometry" />
        </mxCell>
        <mxCell id="7hsorBb9Qb3xn0NSskeE-50" style="edgeStyle=orthogonalEdgeStyle;rounded=0;orthogonalLoop=1;jettySize=auto;html=1;exitX=1;exitY=0.5;exitDx=0;exitDy=0;entryX=0.5;entryY=0;entryDx=0;entryDy=0;" edge="1" parent="1" source="7hsorBb9Qb3xn0NSskeE-46" target="7hsorBb9Qb3xn0NSskeE-43">
          <mxGeometry relative="1" as="geometry">
            <Array as="points">
              <mxPoint x="1920" y="1080" />
              <mxPoint x="1920" y="1290" />
              <mxPoint x="1820" y="1290" />
            </Array>
          </mxGeometry>
        </mxCell>
        <mxCell id="7hsorBb9Qb3xn0NSskeE-53" value="否" style="edgeLabel;html=1;align=center;verticalAlign=middle;resizable=0;points=[];" vertex="1" connectable="0" parent="7hsorBb9Qb3xn0NSskeE-50">
          <mxGeometry x="-0.4611" y="2" relative="1" as="geometry">
            <mxPoint as="offset" />
          </mxGeometry>
        </mxCell>
        <mxCell id="7hsorBb9Qb3xn0NSskeE-51" style="edgeStyle=orthogonalEdgeStyle;rounded=0;orthogonalLoop=1;jettySize=auto;html=1;exitX=0.5;exitY=1;exitDx=0;exitDy=0;entryX=0.5;entryY=0;entryDx=0;entryDy=0;" edge="1" parent="1" source="7hsorBb9Qb3xn0NSskeE-46" target="7hsorBb9Qb3xn0NSskeE-49">
          <mxGeometry relative="1" as="geometry" />
        </mxCell>
        <mxCell id="7hsorBb9Qb3xn0NSskeE-52" value="是" style="edgeLabel;html=1;align=center;verticalAlign=middle;resizable=0;points=[];" vertex="1" connectable="0" parent="7hsorBb9Qb3xn0NSskeE-51">
          <mxGeometry x="-0.1286" y="1" relative="1" as="geometry">
            <mxPoint y="1" as="offset" />
          </mxGeometry>
        </mxCell>
        <mxCell id="7hsorBb9Qb3xn0NSskeE-46" value="卡号是否生效" style="rhombus;whiteSpace=wrap;html=1;" vertex="1" parent="1">
          <mxGeometry x="1780" y="1040" width="80" height="80" as="geometry" />
        </mxCell>
        <mxCell id="7hsorBb9Qb3xn0NSskeE-49" value="卡号生效" style="rounded=0;whiteSpace=wrap;html=1;" vertex="1" parent="1">
          <mxGeometry x="1760" y="1190" width="120" height="60" as="geometry" />
        </mxCell>
        <mxCell id="7hsorBb9Qb3xn0NSskeE-54" value="作废当前申请记录，提示已线下创建卡号" style="rounded=0;whiteSpace=wrap;html=1;" vertex="1" parent="1">
          <mxGeometry x="780" y="1570" width="120" height="60" as="geometry" />
        </mxCell>
      </root>
    </mxGraphModel>
  </diagram>
</mxfile>
